<svg viewBox="0 0 581 581" xmlns="http://www.w3.org/2000/svg">
  <path d="M0 134.335C0 60.1453 60.1453 0 134.335 0H446.665C520.855 0 581 60.1453 581 134.335V446.665C581 520.855 520.855 581 446.665 581H134.335C60.1453 581 0 520.855 0 446.665V134.335Z" fill="#0059F7"/>
  <path d="M321.733 345.913C321.733 293.925 287.075 285.059 261.282 279.82C285.463 274.178 313.673 262.088 313.673 216.548C313.673 154.485 270.552 144.41 205.668 144.41H136.351V426.514H205.668C277 426.514 321.733 417.648 321.733 345.913ZM257.252 219.772C257.252 256.446 240.326 261.282 209.698 261.282H192.771V185.92H207.683C239.117 185.92 257.252 188.741 257.252 219.772ZM265.312 343.898C265.312 382.587 242.744 385.005 208.489 385.005H192.771V301.582H209.698C245.968 301.582 265.312 307.627 265.312 343.898ZM468.008 264.909V211.309C468.008 211.309 457.932 208.891 444.23 208.891C418.035 208.891 404.333 234.28 404.333 234.28L397.079 212.921H351.942V426.514H408.363V268.536C408.363 268.536 423.274 260.879 435.767 260.879C447.857 260.879 468.008 264.909 468.008 264.909Z" fill="white"/>
</svg>
