<svg width="2682" height="581" viewBox="0 0 2682 581" fill="none" xmlns="http://www.w3.org/2000/svg">
<path d="M988.372 367.401C988.372 304.582 946.493 293.869 915.327 287.538C944.545 280.721 978.633 266.112 978.633 211.085C978.633 136.092 926.528 123.918 848.126 123.918H764.368V464.794H848.126C934.319 464.794 988.372 454.081 988.372 367.401ZM910.458 214.981C910.458 259.294 890.005 265.138 852.996 265.138H832.543V174.075H850.561C888.544 174.075 910.458 177.484 910.458 214.981ZM920.197 364.966C920.197 411.715 892.927 414.636 851.535 414.636H832.543V313.834H852.996C896.823 313.834 920.197 321.139 920.197 364.966ZM1169.99 269.521V204.754C1169.99 204.754 1157.82 201.832 1141.26 201.832C1109.61 201.832 1093.05 232.511 1093.05 232.511L1084.28 206.702H1029.74V464.794H1097.92V273.903C1097.92 273.903 1115.94 264.651 1131.03 264.651C1145.64 264.651 1169.99 269.521 1169.99 269.521ZM1389.21 335.748C1391.64 225.207 1333.2 201.832 1284.51 201.832C1232.4 201.832 1174.94 227.155 1174.94 335.748C1174.94 455.541 1240.68 469.663 1294.25 469.663C1336.13 469.663 1373.14 456.515 1373.14 456.515V402.462C1373.14 402.462 1328.82 415.61 1294.25 415.61C1272.82 415.61 1244.09 408.793 1242.63 358.148H1388.72L1389.21 335.748ZM1322.49 315.295H1242.63C1243.6 263.677 1255.29 246.146 1284.51 246.146C1309.34 246.146 1321.52 259.781 1322.49 315.295ZM1620.65 464.794V285.59C1620.65 214.494 1578.28 201.832 1527.64 201.832C1478.94 201.832 1434.63 217.415 1434.63 217.415V271.469C1434.63 271.469 1479.43 256.86 1515.95 256.86C1539.32 256.86 1552.47 259.781 1552.47 285.104V303.608H1507.67C1469.2 303.608 1411.25 315.782 1411.25 386.392C1411.25 456.515 1452.64 469.663 1484.3 469.663C1528.61 469.663 1553.93 441.906 1553.93 441.906L1561.24 464.794H1620.65ZM1552.47 406.358C1552.47 406.358 1532.99 419.019 1509.13 419.019C1491.6 419.019 1479.43 411.715 1479.43 384.931C1479.43 351.818 1494.52 342.565 1532.99 341.592L1552.47 341.105V406.358ZM1895.69 464.794L1818.26 315.782L1885.95 206.702H1807.55L1750.08 318.704L1819.23 469.663L1895.69 464.794ZM1744.73 464.794V114.179H1676.55V464.794H1744.73ZM2063.63 458.463V404.41C2063.63 404.41 2027.6 415.61 2006.66 415.61C1977.93 415.61 1956.5 405.871 1956.5 337.209C1956.5 262.703 1982.8 254.425 2010.55 254.425C2027.6 254.425 2063.63 265.138 2063.63 265.138V213.033C2063.63 213.033 2041.23 201.832 2009.09 201.832C1964.78 201.832 1888.32 214.494 1888.32 337.209C1888.32 458.95 1952.6 469.663 2001.79 469.663C2032.95 469.663 2063.63 458.463 2063.63 458.463ZM2306.53 335.748C2306.53 219.85 2242.25 201.832 2188.69 201.832C2134.63 201.832 2070.84 223.259 2070.84 335.748C2070.84 451.159 2136.58 469.663 2188.69 469.663C2240.31 469.663 2306.53 452.62 2306.53 335.748ZM2238.36 335.748C2238.36 412.201 2210.6 420.967 2188.69 420.967C2166.77 420.967 2139.02 411.715 2139.02 335.748C2139.02 258.807 2161.9 250.042 2188.69 250.042C2215.47 250.042 2238.36 255.886 2238.36 335.748ZM2411.45 464.794V114.179H2343.28V464.794H2411.45ZM2681.74 464.794V114.179H2613.56V222.285C2613.56 222.285 2595.55 201.832 2560 201.832C2527.37 201.832 2452.86 216.441 2452.86 335.748C2452.86 452.62 2509.84 469.663 2550.26 469.663C2592.14 469.663 2618.92 443.854 2618.92 443.854L2626.71 464.794H2681.74ZM2613.56 402.949C2613.56 402.949 2592.14 419.019 2569.74 419.019C2542.47 419.019 2521.04 413.662 2521.04 335.748C2521.04 258.807 2545.88 253.451 2574.61 253.451C2596.03 253.451 2613.56 266.599 2613.56 266.599V402.949Z" fill="black"/>
<path d="M0 134.335C0 60.1453 60.1453 0 134.335 0H446.665C520.855 0 581 60.1453 581 134.335V446.665C581 520.855 520.855 581 446.665 581H134.335C60.1453 581 0 520.855 0 446.665V134.335Z" fill="#0059F7"/>
<path d="M321.733 345.913C321.733 293.925 287.075 285.059 261.282 279.82C285.463 274.178 313.673 262.088 313.673 216.548C313.673 154.485 270.552 144.41 205.668 144.41H136.351V426.514H205.668C277 426.514 321.733 417.648 321.733 345.913ZM257.252 219.772C257.252 256.446 240.326 261.282 209.698 261.282H192.771V185.92H207.683C239.117 185.92 257.252 188.741 257.252 219.772ZM265.312 343.898C265.312 382.587 242.744 385.005 208.489 385.005H192.771V301.582H209.698C245.968 301.582 265.312 307.627 265.312 343.898ZM468.008 264.909V211.309C468.008 211.309 457.932 208.891 444.23 208.891C418.035 208.891 404.333 234.28 404.333 234.28L397.079 212.921H351.942V426.514H408.363V268.536C408.363 268.536 423.274 260.879 435.767 260.879C447.857 260.879 468.008 264.909 468.008 264.909Z" fill="white"/>
</svg>
